PathFileType	4	(X/Y/Z)	Walk3.trc
DataRate	CameraRate	NumFrames	NumMarkers	Units	OrigDataRate	OrigDataStartFrame	OrigNumFrames
200.000000	200.000000	7	60	mm	200.000000	402	567
Frame#	Times		LFHD		RFHD		CLAV		STRN		LASI		RASI		RACR1		RUA1		RElbow		RFA1		RWRR		RWRU		RCAR		LACR1		LUA1		LElbow		LFA1		LWRR		LWRU		LCAR		RTH3		RTH4		RMFC		RTB1		RTB2		RTB4		LTH1		LTH3		LLFC		LMFC		LTB1		LTB2		LTB4		LMT1		RTB3		LTB3		RMMAL		RMT1		RTH2		LTH4		LTH2		RToe		RElbowM		RLFC		RBHD		LToe		RTH1		RCAL		C7		RBack		RLMAL		RPSI		LMT5		T10		LLMAL		LPSI		LMMAL		LBHD		LCAL		LElbowM
			X1	Y1	Z1	X2	Y2	Z2	X3	Y3	Z3	X4	Y4	Z4	X5	Y5	Z5	X6	Y6	Z6	X7	Y7	Z7	X8	Y8	Z8	X9	Y9	Z9	X10	Y10	Z10	X11	Y11	Z11	X12	Y12	Z12	X13	Y13	Z13	X14	Y14	Z14	X15	Y15	Z15	X16	Y16	Z16	X17	Y17	Z17	X18	Y18	Z18	X19	Y19	Z19	X20	Y20	Z20	X21	Y21	Z21	X22	Y22	Z22	X23	Y23	Z23	X24	Y24	Z24	X25	Y25	Z25	X26	Y26	Z26	X27	Y27	Z27	X28	Y28	Z28	X29	Y29	Z29	X30	Y30	Z30	X31	Y31	Z31	X32	Y32	Z32	X33	Y33	Z33	X34	Y34	Z34	X35	Y35	Z35	X36	Y36	Z36	X37	Y37	Z37	X38	Y38	Z38	X39	Y39	Z39	X40	Y40	Z40	X41	Y41	Z41	X42	Y42	Z42	X43	Y43	Z43	X44	Y44	Z44	X45	Y45	Z45	X46	Y46	Z46	X47	Y47	Z47	X48	Y48	Z48	X49	Y49	Z49	X50	Y50	Z50	X51	Y51	Z51	X52	Y52	Z52	X53	Y53	Z53	X54	Y54	Z54	X55	Y55	Z55	X56	Y56	Z56	X57	Y57	Z57	X58	Y58	Z58	X59	Y59	Z59	X60	Y60	Z60

402	2.01	476.84	1683.4	122.94	471.66	1678	23.877	492.5	1421.1	89.229	566.3	1265	81.402	440.65	1007.1	-99.904	472.47	999.53	267.8	383.91	1498.5	264.97	359.18	1324.2	377.23	372.68	1175.1	422.31	417.87	1028.5	435.06	457.05	915.66	364.25	444.1	918.01	445.04	487.8	838.82	414.69	367.27	1481.8	-88.042	327.81	1310.3	-174.73	313.11	1148.1	-226.19	351.72	1014.4	-243.42	430.31	903.08	-195.19	379.53	876.88	-242.92	454.62	823.89	-234.21	428.63	619.84	272.3	411.62	703.1	283.4	418.27	503.24	108.66	478.82	379.56	187.08	444.44	293.58	238.21	460.04	295.13	178.52	421.13	777.98	-136.87	463.73	611.58	-136.29	450.15	532.53	-136.34	484.14	516.24	18.44	467.89	397.44	-78.375	387.72	339.63	-110.37	421.15	330.5	-58.38	317.7	56.463	-31.689	441.31	211.47	169.92	365.99	264.62	-40.657	381.61	81.865	111.33	507.97	25.89	148.04	467.45	717.24	270.25	441.21	696.17	-137.5	497.38	709.38	-119.25	554.71	29.535	183.66	332.13	1103.6	320.14	426.95	501.89	265.11	327.27	1588.9	24.494	354.64	43.341	-76.116	393.39	787.27	295.45	287.51	50.347	151.87	296.97	1494.4	95.878	239.05	1378.1	208.47	348.19	75.943	197.23	200.98	1041.8	130.58	256.37	77.749	-96.549	241.98	1177.6	94.333	204.68	177.65	-34.014	207.02	1044.1	46.079	240.33	170.72	48.193	349.71	1603.2	171.81	152.93	175.62	28.689	268.49	1086.1	-125.41
403	2.015	482.73	1684.2	122.95	477.63	1678.8	23.892	498.24	1422	89.343	572.07	1265.9	81.644	446.99	1008	-99.187	478.3	1001	267.64	389.51	1499.5	265.01	365.3	1325.4	377.6	379.81	1176.4	423.17	426.64	1030.5	436.04	467.26	918.01	365.3	454.13	920.31	446.11	498.72	841.53	415.94	373.08	1482.6	-87.943	332.95	1311.1	-174.41	317.18	1148.9	-225.56	354.12	1014.6	-242.91	431.52	902.24	-194.97	380.14	876.71	-242.45	454.32	822.43	-233.97	430.9	619.99	272.36	414.82	703.44	283.46	419.13	503.33	108.64	479.42	379.4	187.13	444.82	293.51	238.23	460.49	295.01	178.56	428.58	779.3	-136.48	472.81	613.29	-135.44	459.99	534.12	-135.28	494.1	518.28	19.33	480.29	399.27	-77.672	401.33	339.8	-109.67	435.16	331.26	-57.825	338.5	55.413	-31.752	441.61	211.38	169.94	381.49	264.1	-40.18	381.75	81.915	111.26	508	25.901	148.1	470.74	716.95	270.21	449.5	697.63	-136.87	505.53	711.41	-118.7	554.71	29.512	183.79	340.35	1104.4	320.81	428.03	501.95	265.09	333.19	1589.7	24.467	375.64	43.217	-76.252	397.53	787.81	295.59	287.57	50.451	151.77	302.77	1495.3	95.923	244.81	1378.9	208.66	348.19	76.022	197.17	206.68	1042.9	130.64	276.36	75.216	-96.394	247.81	1178.4	94.608	222.12	173.4	-33.426	212.91	1045	46.109	258.05	167.13	48.709	355.5	1604.1	171.81	170.42	169.84	29.315	272.44	1087.4	-124.54
404	2.02	488.63	1685	122.94	483.61	1679.4	23.883	503.98	1422.9	89.441	577.84	1266.8	81.881	453.33	1008.8	-98.441	484.13	1002.3	267.43	395.12	1500.5	265.03	371.41	1326.4	377.96	386.96	1177.8	424.03	435.41	1032.4	436.99	477.4	920.34	366.3	464.14	922.58	447.13	509.61	844.22	417.09	378.9	1483.3	-87.864	338.1	1311.8	-174.11	321.24	1149.6	-224.96	356.55	1014.9	-242.43	432.77	901.42	-194.76	380.82	876.56	-241.99	454.07	820.99	-233.68	433.16	620.12	272.41	418	703.74	283.51	420.02	503.42	108.62	480.03	379.24	187.18	445.2	293.44	238.25	460.95	294.88	178.59	435.97	780.55	-136.12	481.78	614.94	-134.6	469.72	535.64	-134.23	503.92	520.26	20.229	492.61	401.08	-76.976	414.93	339.94	-108.99	449.13	332	-57.285	359.38	54.436	-31.857	441.93	211.28	169.96	397.03	263.58	-39.732	381.91	81.967	111.19	508.02	25.912	148.15	474.02	716.64	270.16	457.71	699.02	-136.26	513.59	713.37	-118.15	554.69	29.489	183.91	348.53	1105.3	321.5	429.11	502	265.05	339.1	1590.5	24.422	396.7	43.172	-76.441	401.65	788.3	295.71	287.63	50.556	151.68	308.58	1496	95.959	250.57	1379.7	208.85	348.2	76.107	197.11	212.37	1043.9	130.69	296.47	72.718	-96.281	253.64	1179.1	94.85	239.73	169.13	-32.883	218.78	1045.8	46.125	275.93	163.53	49.18	361.31	1605	171.78	188.14	164.02	29.891	276.36	1088.7	-123.72
405	2.025	494.53	1685.6	122.91	489.59	1680	23.85	509.71	1423.7	89.524	583.6	1267.5	82.116	459.68	1009.6	-97.674	489.94	1003.5	267.2	400.74	1501.4	265.04	377.53	1327.4	378.32	394.11	1179	424.89	444.18	1034.2	437.88	487.49	922.64	367.22	474.13	924.82	448.08	520.45	846.89	418.16	384.71	1483.9	-87.805	343.25	1312.5	-173.85	325.29	1150.3	-224.41	359	1015.1	-241.97	434.07	900.63	-194.55	381.57	876.42	-241.55	453.86	819.59	-233.36	435.42	620.23	272.44	421.18	704.01	283.54	420.94	503.5	108.59	480.65	379.08	187.23	445.59	293.37	238.27	461.42	294.76	178.63	443.29	781.74	-135.79	490.64	616.52	-133.76	479.33	537.09	-133.19	513.62	522.15	21.135	504.87	402.87	-76.289	428.52	340.04	-108.33	463.07	332.72	-56.762	380.34	53.544	-32.011	442.26	211.18	169.98	412.6	263.07	-39.316	382.06	82.021	111.12	508.05	25.922	148.21	477.28	716.3	270.1	465.83	700.34	-135.68	521.54	715.26	-117.6	554.68	29.466	184.03	356.66	1106	322.22	430.2	502.04	265.01	345.02	1591.1	24.36	417.8	43.221	-76.685	405.74	788.74	295.8	287.68	50.663	151.59	314.39	1496.8	95.986	256.34	1380.4	209.03	348.21	76.199	197.05	218.05	1044.8	130.73	316.68	70.272	-96.215	259.45	1179.8	95.056	257.5	164.86	-32.388	224.64	1046.6	46.128	293.97	159.94	49.602	367.13	1605.8	171.73	206.07	158.19	30.414	280.24	1089.9	-122.95
406	2.03	500.45	1686.2	122.86	495.58	1680.5	23.796	515.45	1424.4	89.593	589.35	1268.2	82.348	466.02	1010.4	-96.895	495.74	1004.7	266.93	406.38	1502.2	265.04	383.66	1328.4	378.66	401.27	1180.2	425.75	452.94	1036.1	438.74	497.51	924.9	368.09	484.11	927.01	448.97	531.26	849.54	419.13	390.53	1484.4	-87.767	348.4	1313	-173.62	329.34	1150.9	-223.9	361.49	1015.3	-241.53	435.4	899.85	-194.33	382.4	876.3	-241.11	453.72	818.22	-233	437.67	620.31	272.46	424.33	704.24	283.57	421.9	503.57	108.57	481.28	378.91	187.27	445.98	293.31	238.28	461.9	294.62	178.68	450.56	782.85	-135.48	499.39	618.04	-132.95	488.83	538.47	-132.16	523.19	523.96	22.043	517.05	404.63	-75.614	442.1	340.12	-107.7	476.97	333.44	-56.26	401.35	52.75	-32.215	442.61	211.08	170.01	428.19	262.57	-38.933	382.23	82.074	111.06	508.08	25.932	148.26	480.52	715.92	270.04	473.86	701.6	-135.12	529.39	717.07	-117.05	554.65	29.443	184.14	364.75	1106.8	322.96	431.3	502.07	264.96	350.95	1591.7	24.281	438.94	43.376	-76.991	409.82	789.13	295.88	287.72	50.772	151.5	320.21	1497.4	96.003	262.11	1381	209.22	348.23	76.297	196.99	223.71	1045.7	130.78	336.99	67.892	-96.2	265.26	1180.4	95.223	275.43	160.59	-31.943	230.47	1047.3	46.117	312.16	156.38	49.974	372.96	1606.5	171.66	224.21	152.36	30.882	284.1	1091	-122.23
407	2.035	506.38	1686.7	122.78	501.58	1681	23.721	521.2	1425	89.648	595.09	1268.8	82.577	472.36	1011.1	-96.116	501.52	1005.6	266.66	412.03	1503	265.01	389.8	1329.2	379	408.45	1181.4	426.6	461.69	1037.8	439.55	507.47	927.13	368.89	494.06	929.16	449.81	542.02	852.15	420.01	396.35	1484.9	-87.749	353.55	1313.6	-173.41	333.39	1151.5	-223.42	364.02	1015.5	-241.11	436.79	899.09	-194.09	383.31	876.19	-240.69	453.64	816.88	-232.6	439.92	620.37	272.47	427.48	704.43	283.59	422.88	503.64	108.55	481.93	378.73	187.31	446.38	293.24	238.29	462.39	294.48	178.72	457.77	783.89	-135.19	508.02	619.48	-132.14	498.2	539.78	-131.15	532.64	525.69	22.951	529.14	406.37	-74.954	455.64	340.18	-107.1	490.82	334.15	-55.781	422.41	52.067	-32.475	442.96	210.97	170.03	443.79	262.09	-38.586	382.39	82.125	111	508.1	25.943	148.31	483.75	715.51	269.98	481.8	702.78	-134.59	537.15	718.8	-116.49	554.63	29.42	184.24	372.78	1107.5	323.72	432.41	502.09	264.9	356.89	1592.2	24.185	460.09	43.653	-77.361	413.86	789.48	295.95	287.76	50.886	151.4	326.03	1498	96.01	267.9	1381.5	209.39	348.27	76.401	196.93	229.35	1046.5	130.81	357.39	65.593	-96.24	271.05	1181	95.351	293.5	156.35	-31.552	236.29	1048	46.092	330.49	152.86	50.29	378.81	1607.1	171.58	242.55	146.56	31.291	287.92	1092.1	-121.56
408	2.04	512.32	1687.2	122.69	507.59	1681.3	23.628	526.95	1425.5	89.689	600.83	1269.3	82.804	478.68	1011.8	-95.345	507.28	1006.5	266.37	417.7	1503.7	264.98	395.96	1330	379.32	415.65	1182.5	427.43	470.43	1039.5	440.31	517.36	929.31	369.63	504	931.27	450.58	552.74	854.73	420.79	402.17	1485.3	-87.753	358.7	1314	-173.23	337.45	1152	-222.98	366.59	1015.7	-240.7	438.23	898.35	-193.84	384.3	876.08	-240.27	453.62	815.57	-232.16	442.15	620.4	272.48	430.61	704.58	283.6	423.89	503.7	108.54	482.6	378.55	187.34	446.8	293.17	238.29	462.89	294.34	178.77	464.94	784.86	-134.93	516.54	620.84	-131.35	507.46	541	-130.15	541.96	527.32	23.858	541.15	408.08	-74.313	469.15	340.23	-106.53	504.62	334.86	-55.328	443.49	51.508	-32.793	443.33	210.87	170.05	459.39	261.63	-38.279	382.56	82.17	110.94	508.12	25.953	148.36	486.96	715.08	269.93	489.66	703.88	-134.08	544.8	720.44	-115.93	554.6	29.398	184.34	380.78	1108.1	324.51	433.53	502.1	264.85	362.83	1592.7	24.072	481.26	44.063	-77.798	417.88	789.77	296	287.79	51.007	151.3	331.85	1498.5	96.007	273.7	1382	209.57	348.31	76.51	196.87	234.98	1047.2	130.83	377.87	63.387	-96.338	276.83	1181.5	95.44	311.7	152.16	-31.218	242.09	1048.5	46.052	348.95	149.39	50.547	384.67	1607.7	171.48	261.09	140.8	31.639	291.71	1093.1	-120.95
